<?xml version="1.0" encoding="UTF-8" standalone="no"?><!DOCTYPE svg PUBLIC "-//W3C//DTD SVG 1.1//EN" "http://www.w3.org/Graphics/SVG/1.1/DTD/svg11.dtd"><svg width="100%" height="100%" viewBox="0 0 2000 2000" version="1.1" xmlns="http://www.w3.org/2000/svg" xmlns:xlink="http://www.w3.org/1999/xlink" xml:space="preserve" xmlns:serif="http://www.serif.com/" style="fill-rule:evenodd;clip-rule:evenodd;stroke-linejoin:round;stroke-miterlimit:1.41421;"><rect id="Logo-Schrift" serif:id="Logo/Schrift" x="0" y="0" width="2000" height="2000" style="fill:none;"/><clipPath id="_clip1"><rect id="Logo-Schrift1" serif:id="Logo/Schrift" x="0" y="0" width="2000" height="2000"/></clipPath><g clip-path="url(#_clip1)"><g><path d="M724.301,452.986c0,0 -1.008,2.047 -1.672,3.417c-66.752,138.411 -109.579,291.046 -118.11,441.574c-6.135,108.26 7.192,218.705 62.804,314.883c49.064,84.854 130.462,148 222.637,186.771c92.083,38.731 192.019,55.991 291.266,64.15l0.022,0.002c16.561,3.196 21.245,2.677 36.045,11.079c27.038,15.35 44.464,46.248 45.766,77.844c0.282,6.854 -0.736,13.7 -1.104,20.55l-0.006,0.042c-1.658,6.632 -2.693,13.451 -4.972,19.896c-10.486,29.642 -35.965,54.049 -66.61,60.91c-16.619,3.72 -20.939,1.872 -37.728,0.123c-151.879,-32.694 -301.24,-85.31 -420.403,-182.629c-116.843,-95.424 -191.89,-236.392 -201.456,-393.869c-7.968,-131.158 23.374,-262.348 70.742,-383.6c32.878,-84.161 72.868,-166.186 122.421,-240.656c0,0 0.64,-1.05 0.358,-0.487Zm224.336,-224.354c0,0 -1.113,1.945 -1.846,3.248c-83.025,148.026 -140.021,316.216 -144.217,480.005c-0.199,7.756 -0.26,15.516 -0.174,23.274c0.815,73.275 15.114,147.37 50.961,211.951c25.343,45.655 61.092,85.13 103.358,116.411c113.451,83.963 262.103,111.152 399.739,122.153l0.021,0.002c16.561,3.161 21.25,2.63 36.053,11.012c27.125,15.358 44.467,46.241 45.762,77.868c0.281,6.867 -0.739,13.726 -1.109,20.588l-0.006,0.043c-1.659,6.645 -2.696,13.477 -4.977,19.935c-10.485,29.677 -35.97,54.117 -66.608,60.941c-16.615,3.701 -20.938,1.84 -37.715,0.059c-149.959,-32.629 -300.232,-83.827 -418.901,-181.082c-111.345,-91.252 -182.057,-226.413 -184.257,-378.185c-1.864,-128.647 37.997,-254.452 92.366,-368.871c36.802,-77.45 80.503,-153.171 131.528,-219.367c0,0 0.259,-0.394 0.022,0.015Zm246.462,-192.861c-25.143,46.889 -46.773,95.54 -66.722,144.805c-48.987,120.975 -88.028,248.193 -92.355,377.458c-2.246,67.083 5.407,135.346 37.059,194.437c8.443,15.763 18.601,30.592 30.388,44.084c2.855,3.269 3.422,3.833 4.774,5.283c57.991,62.184 148.526,86.788 238.611,93.307c77.969,5.643 157.039,-1.242 233.728,-12.457l0.021,-0.004c16.076,-0.589 20.314,-2.077 35.873,2.547c28.378,8.433 51.248,33.324 59.284,62.461c1.738,6.304 2.267,12.881 3.4,19.321l0.003,0.043c-0.289,16.954 0.89,21.658 -4.265,37.878c-8.969,28.218 -32.729,51.795 -61.585,58.584c-17.395,4.093 -35.255,2.596 -53.097,2.56c-113.928,-0.224 -228.462,-10.369 -336.293,-49.818c-84.98,-31.089 -164.418,-83.888 -212.889,-161.038c-27.415,-43.637 -44.264,-93.728 -51.246,-144.773c-12.899,-94.312 5.01,-189.978 33.529,-279.313c42.483,-133.072 108.768,-258.277 186.722,-373.812c5.063,-7.504 10.177,-14.978 15.476,-22.324c-0.139,0.257 -0.278,0.514 -0.416,0.771Z" style="fill-rule:nonzero;"/><path d="M644.629,444.663l-285.823,0l0,966.87l213.355,0l0,37.97l-251.324,0l0,-1042.81l323.792,0l0,37.97Zm978.935,1004.84l-288.313,0l0,-37.97l250.344,0l0,-293.849l37.969,0l0,331.819Zm0,-628.054l-37.969,0l0,-376.786l-431.967,0l0,-37.97l469.936,0l0,414.756Z" style="fill-rule:nonzero;"/></g><g><rect x="326.745" y="1707.62" width="15.094" height="221.154" style="fill-rule:nonzero;"/><path d="M506.883,1770.3l15.094,0l0,158.482l-11.157,0l-3.937,-31.171c-1.969,3.937 -4.812,7.875 -8.531,11.812c-3.719,3.938 -8.039,7.547 -12.961,10.828c-4.922,3.282 -10.5,5.961 -16.734,8.039c-6.234,2.078 -12.851,3.117 -19.851,3.117c-17.063,0 -30.133,-5.14 -39.211,-15.421c-9.078,-10.281 -13.617,-24.937 -13.617,-43.968l0,-101.718l15.094,0l0,101.718c0,14.656 3.117,25.976 9.351,33.96c6.234,7.984 16.133,11.976 29.695,11.976c6.125,0 12.141,-1.093 18.047,-3.281c5.906,-2.187 11.32,-4.976 16.242,-8.367c4.922,-3.39 9.296,-7.273 13.125,-11.648c3.828,-4.375 6.945,-8.859 9.351,-13.453l0,-110.905Z" style="fill-rule:nonzero;"/><path d="M630.256,1717.8c-13.124,0 -21.929,3.718 -26.413,11.156c-4.485,7.437 -6.727,18.046 -6.727,31.828l0,9.515l48.89,0l0,12.469l-48.89,0l0,146.013l-14.765,0l0,-146.013l-27.562,0l0,-12.469l27.562,0l0,-9.844c0,-16.843 3.39,-30.296 10.172,-40.358c6.781,-10.063 18.374,-15.094 34.78,-15.094c5.688,0 11.047,0.602 16.078,1.805c5.032,1.203 9.406,2.789 13.125,4.757l-3.281,10.828c-3.281,-1.531 -7,-2.679 -11.156,-3.445c-4.156,-0.765 -8.094,-1.148 -11.813,-1.148Z" style="fill-rule:nonzero;"/><path d="M707.693,1887.76c0,11.156 1.75,18.977 5.25,23.461c3.5,4.484 9.625,6.726 18.375,6.726c5.031,0 9.789,-0.765 14.273,-2.296c4.484,-1.532 8.258,-3.5 11.32,-5.907l4.266,10.828c-3.719,2.625 -8.149,4.977 -13.289,7.055c-5.141,2.078 -11.211,3.117 -18.211,3.117c-12.25,0 -21.437,-3.281 -27.562,-9.843c-6.125,-6.563 -9.187,-17.5 -9.187,-32.813l0,-105.326l-27.563,0l0,-12.469l27.234,0l5.25,-45.281l9.844,0l0,45.281l50.203,0l0,12.469l-50.203,0l0,104.998Z" style="fill-rule:nonzero;"/><path d="M811.707,1928.78l-15.093,0l0,-158.482l11.156,0l3.937,31.172c2.625,-4.594 5.633,-8.914 9.024,-12.961c3.39,-4.047 7.164,-7.602 11.32,-10.664c4.156,-3.063 8.64,-5.524 13.453,-7.383c4.812,-1.859 9.843,-2.789 15.093,-2.789c4.594,0 8.696,0.492 12.305,1.477c3.609,0.984 6.617,2.132 9.023,3.445l-3.937,14.437c-2.188,-1.312 -4.758,-2.406 -7.711,-3.281c-2.953,-0.875 -6.727,-1.312 -11.32,-1.312c-10.5,0 -19.578,3.39 -27.234,10.171c-7.656,6.781 -14.328,15.203 -20.016,25.266l0,110.904Z" style="fill-rule:nonzero;"/><path d="M1003.99,1847.08l-38.718,0c-19.687,0 -33.851,3.063 -42.492,9.188c-8.64,6.125 -12.96,15.859 -12.96,29.203c0,5.687 0.929,10.609 2.789,14.765c1.859,4.156 4.429,7.601 7.71,10.336c3.282,2.734 7.11,4.758 11.485,6.07c4.375,1.312 8.968,1.969 13.781,1.969c9.406,0 17.718,-1.586 24.937,-4.758c7.219,-3.172 13.289,-7.328 18.211,-12.469c4.921,-5.14 8.695,-10.882 11.32,-17.226c2.625,-6.344 3.937,-12.797 3.937,-19.359l0,-17.719Zm0,-23.952c0,-15.75 -3.664,-26.797 -10.992,-33.141c-7.328,-6.343 -17.882,-9.515 -31.663,-9.515c-10.719,0 -20.071,1.094 -28.055,3.281c-7.984,2.188 -15.148,5.031 -21.492,8.531l-3.609,-11.156c5.906,-3.5 13.453,-6.617 22.64,-9.351c9.188,-2.735 19.359,-4.102 30.516,-4.102c19.249,0 33.632,4.977 43.147,14.93c9.516,9.953 14.274,23.46 14.274,40.523l0,105.654l-10.828,0l-3.938,-31.171c-5.906,10.719 -13.781,19.031 -23.624,24.937c-9.844,5.906 -21.547,8.859 -35.109,8.859c-7,0 -13.563,-0.984 -19.688,-2.953c-6.125,-1.968 -11.429,-4.921 -15.914,-8.859c-4.484,-3.937 -7.984,-8.75 -10.499,-14.437c-2.516,-5.688 -3.774,-12.25 -3.774,-19.687c0,-17.063 5.906,-29.859 17.719,-38.391c11.812,-8.531 29.203,-12.796 52.171,-12.796l38.718,0l0,-11.156Z" style="fill-rule:nonzero;"/><path d="M1182.16,1770.3l15.093,0l0,158.482l-11.156,0l-3.937,-31.171c-1.969,3.937 -4.813,7.875 -8.531,11.812c-3.719,3.938 -8.039,7.547 -12.961,10.828c-4.922,3.282 -10.5,5.961 -16.734,8.039c-6.234,2.078 -12.852,3.117 -19.851,3.117c-17.063,0 -30.133,-5.14 -39.211,-15.421c-9.078,-10.281 -13.617,-24.937 -13.617,-43.968l0,-101.718l15.094,0l0,101.718c0,14.656 3.117,25.976 9.351,33.96c6.234,7.984 16.133,11.976 29.695,11.976c6.125,0 12.14,-1.093 18.047,-3.281c5.906,-2.187 11.32,-4.976 16.242,-8.367c4.921,-3.39 9.296,-7.273 13.124,-11.648c3.829,-4.375 6.946,-8.859 9.352,-13.453l0,-110.905Z" style="fill-rule:nonzero;"/><path d="M1290.11,1918.61c14,0 24.335,-2.625 31.007,-7.875c6.672,-5.25 10.008,-12.469 10.008,-21.656c0,-5.25 -1.094,-9.734 -3.281,-13.453c-2.188,-3.719 -5.25,-7 -9.188,-9.844c-3.937,-2.843 -8.586,-5.25 -13.945,-7.218c-5.359,-1.969 -11.101,-3.938 -17.226,-5.907c-6.563,-1.968 -12.633,-4.21 -18.211,-6.726c-5.578,-2.516 -10.445,-5.578 -14.601,-9.187c-4.157,-3.61 -7.438,-7.821 -9.844,-12.633c-2.406,-4.813 -3.609,-10.609 -3.609,-17.391c0,-6.562 1.312,-12.304 3.937,-17.226c2.625,-4.922 6.289,-9.023 10.992,-12.304c4.703,-3.282 10.227,-5.688 16.57,-7.219c6.344,-1.531 13.125,-2.297 20.344,-2.297c9.406,0 18.046,0.984 25.921,2.953c7.875,1.969 14.875,4.266 21,6.891l-3.937,12.14c-5.688,-2.625 -12.25,-4.812 -19.688,-6.562c-7.437,-1.75 -15.203,-2.625 -23.296,-2.625c-11.813,0 -21,2.078 -27.562,6.234c-6.563,4.156 -9.844,10.391 -9.844,18.703c0,9.625 3.555,17.008 10.664,22.148c7.109,5.141 15.914,9.133 26.414,11.977c17.281,5.031 30.406,11.265 39.374,18.702c8.969,7.438 13.453,17.719 13.453,30.844c0,13.125 -4.594,23.461 -13.781,31.007c-9.187,7.547 -23.078,11.32 -41.671,11.32c-9.188,0 -18.156,-1.039 -26.906,-3.117c-8.75,-2.078 -15.969,-4.429 -21.656,-7.054l3.937,-11.813c5.25,2.407 11.922,4.539 20.016,6.399c8.093,1.859 16.296,2.789 24.609,2.789Z" style="fill-rule:nonzero;"/><path d="M1452.2,1780.14c-10.062,0 -18.812,1.695 -26.249,5.086c-7.438,3.39 -13.563,8.148 -18.375,14.273c-4.812,6.125 -8.367,13.453 -10.664,21.984c-2.297,8.531 -3.445,17.828 -3.445,27.89c0,10.063 1.203,19.359 3.609,27.89c2.406,8.532 6.07,15.86 10.992,21.985c4.922,6.125 11.211,10.882 18.867,14.273c7.656,3.39 16.734,5.086 27.234,5.086c7,0 13.727,-0.821 20.18,-2.461c6.453,-1.641 12.523,-3.664 18.21,-6.07l3.938,11.484c-5.688,2.844 -12.195,5.14 -19.523,6.89c-7.328,1.75 -15.149,2.625 -23.461,2.625c-12.469,0 -23.406,-2.023 -32.812,-6.07c-9.406,-4.047 -17.226,-9.734 -23.461,-17.062c-6.234,-7.328 -10.937,-15.969 -14.109,-25.922c-3.172,-9.953 -4.758,-20.835 -4.758,-32.648c0,-11.812 1.531,-22.695 4.594,-32.648c3.062,-9.953 7.711,-18.593 13.945,-25.921c6.234,-7.328 13.945,-13.016 23.133,-17.063c9.187,-4.046 19.906,-6.07 32.155,-6.07c8.094,0 15.532,0.766 22.313,2.297c6.781,1.531 13.234,3.609 19.359,6.234l-3.609,11.484c-5.032,-2.406 -10.719,-4.265 -17.063,-5.578c-6.343,-1.312 -13.343,-1.968 -21,-1.968Z" style="fill-rule:nonzero;"/><path d="M1551.62,1928.78l-15.093,0l0,-221.153l15.093,0l0,93.843c3.281,-4.157 7.055,-8.258 11.32,-12.305c4.266,-4.047 9.078,-7.656 14.438,-10.828c5.359,-3.172 11.101,-5.742 17.226,-7.711c6.125,-1.969 12.578,-2.953 19.359,-2.953c16.625,0 29.531,5.141 38.718,15.422c9.188,10.281 13.781,24.937 13.781,43.968l0,101.717l-15.093,0l0,-101.717c0,-14.656 -3.5,-25.976 -10.5,-33.961c-7,-7.984 -16.406,-11.976 -28.218,-11.976c-6.344,0 -12.469,1.039 -18.375,3.117c-5.906,2.078 -11.539,4.867 -16.898,8.367c-5.36,3.5 -10.227,7.438 -14.602,11.813c-4.375,4.375 -8.093,8.859 -11.156,13.453l0,110.904Z" style="fill-rule:nonzero;"/></g></g></svg>